<?xml version="1.0" standalone="no"?>
<!DOCTYPE svg PUBLIC "-//W3C//DTD SVG 20010904//EN"
 "http://www.w3.org/TR/2001/REC-SVG-20010904/DTD/svg10.dtd">
<svg version="1.0" xmlns="http://www.w3.org/2000/svg"
 width="474.000000pt" height="366.000000pt" viewBox="0 0 474.000000 366.000000"
 preserveAspectRatio="xMidYMid meet">
<metadata>
Created by potrace 1.16, written by Peter Selinger 2001-2019
</metadata>
<g transform="translate(0.000000,366.000000) scale(0.100000,-0.100000)"
fill="#000000" stroke="none">
<path d="M2404 3476 c-100 -83 -318 -266 -485 -406 -167 -140 -395 -330 -507
-424 -161 -134 -208 -179 -230 -220 -15 -28 -63 -112 -107 -186 -43 -74 -102
-175 -130 -225 -28 -49 -77 -134 -108 -187 -31 -54 -81 -140 -110 -190 -206
-356 -247 -427 -267 -463 -12 -22 -44 -76 -70 -120 -54 -91 -291 -501 -339
-587 l-32 -58 536 0 536 0 30 67 c35 77 49 107 148 317 39 82 71 150 71 152 0
2 32 69 70 150 39 80 70 147 70 149 0 2 24 54 54 116 30 63 99 211 154 329 55
118 183 393 285 610 101 217 248 532 327 700 78 168 175 376 217 463 41 88 73
160 71 162 -2 1 -84 -65 -184 -149z"/>
<path d="M2747 3312 c-14 -37 -58 -155 -97 -262 -38 -107 -159 -440 -268 -740
l-198 -545 60 -76 c76 -95 204 -249 293 -355 113 -134 266 -314 308 -365 22
-26 130 -154 240 -284 231 -273 239 -284 232 -291 -3 -3 -70 -17 -149 -30 -79
-14 -242 -42 -363 -64 -121 -21 -391 -69 -600 -106 -834 -146 -1020 -181 -995
-188 14 -4 811 -5 1773 -4 l1748 3 -89 155 c-144 251 -470 815 -937 1620 -101
173 -192 331 -202 350 -24 42 -96 166 -223 385 -51 88 -126 216 -165 285 -186
323 -311 537 -326 558 -16 22 -16 21 -42 -46z"/>
</g>
</svg>
