<?xml version="1.0" standalone="no"?>
<!DOCTYPE svg PUBLIC "-//W3C//DTD SVG 20010904//EN"
 "http://www.w3.org/TR/2001/REC-SVG-20010904/DTD/svg10.dtd">
<svg version="1.0" xmlns="http://www.w3.org/2000/svg"
 width="474.000000pt" height="664.000000pt" viewBox="0 0 474.000000 664.000000"
 preserveAspectRatio="xMidYMid meet">
<metadata>
Created by potrace 1.16, written by Peter Selinger 2001-2019
</metadata>
<g transform="translate(0.000000,664.000000) scale(0.100000,-0.100000)"
fill="#000000" stroke="none">
<path d="M950 6190 l0 -450 435 0 435 0 0 115 0 115 -307 0 -306 0 7 192 c4
106 9 194 12 198 3 3 138 7 300 9 l294 3 0 134 0 134 -435 0 -435 0 0 -450z"/>
<path d="M1926 6624 c-3 -9 -6 -132 -6 -275 l0 -259 310 0 310 0 0 -63 0 -64
-107 -6 c-58 -4 -198 -7 -310 -7 l-203 0 0 -105 0 -105 445 0 445 0 0 265 0
265 -237 0 c-131 0 -275 3 -320 7 l-83 6 0 48 0 49 320 0 320 0 0 130 0 130
-439 0 c-391 0 -440 -2 -445 -16z"/>
<path d="M2910 6365 l0 -275 305 0 305 0 0 -70 0 -70 -305 0 -305 0 0 -105 0
-105 440 0 439 0 3 103 c2 56 2 175 0 265 l-3 162 -319 0 -320 0 0 55 0 55
319 0 318 0 6 55 c3 30 3 88 0 130 l-6 75 -438 0 -439 0 0 -275z"/>
<path d="M0 5299 c0 -38 4 -68 8 -65 7 4 21 -139 83 -844 57 -657 81 -925 99
-1115 22 -236 102 -1125 125 -1400 17 -200 53 -598 90 -1015 14 -151 27 -284
30 -295 4 -17 41 -30 232 -84 125 -35 352 -99 503 -141 151 -43 471 -133 710
-200 239 -67 437 -126 438 -131 5 -11 89 -12 94 -1 2 5 104 37 228 71 124 35
342 96 485 136 143 41 431 121 640 180 209 58 400 112 425 120 25 7 60 17 78
20 18 4 35 12 37 18 5 14 55 556 115 1247 22 256 49 562 60 680 59 647 227
2537 236 2658 4 50 11 92 15 92 5 0 9 32 9 70 l0 70 -2370 0 -2370 0 0 -71z
m4305 -381 c-3 -35 -10 -108 -16 -163 -12 -125 -64 -711 -84 -950 -21 -246
-54 -621 -60 -670 -3 -22 -9 -94 -15 -160 -6 -66 -24 -273 -40 -460 -17 -187
-46 -520 -66 -740 -68 -772 -82 -916 -87 -922 -7 -6 -38 -15 -747 -210 -598
-164 -781 -213 -797 -213 -10 0 -13 48 -13 223 0 123 -3 258 -6 300 -6 67 -9
77 -26 77 -21 0 -630 152 -1033 258 l-260 69 -17 114 c-35 247 -81 786 -68
802 8 9 575 5 584 -3 3 -3 12 -87 20 -185 27 -317 22 -293 65 -305 20 -5 75
-17 121 -25 47 -9 189 -36 315 -60 127 -24 246 -45 265 -47 l35 -3 3 494 3
494 -728 -7 -728 -7 -19 192 c-27 281 -33 399 -21 415 9 13 295 143 470 214
39 16 201 85 360 155 160 69 354 154 433 187 78 34 142 66 142 70 0 4 -308 8
-684 8 -375 0 -710 3 -743 6 l-61 7 -6 51 c-24 184 -46 390 -46 439 l0 57 815
0 c647 0 816 3 814 13 -1 6 -1 132 0 280 l1 267 965 0 966 0 -6 -62z"/>
</g>
</svg>
