<?xml version="1.0" standalone="no"?>
<!DOCTYPE svg PUBLIC "-//W3C//DTD SVG 20010904//EN"
 "http://www.w3.org/TR/2001/REC-SVG-20010904/DTD/svg10.dtd">
<svg version="1.0" xmlns="http://www.w3.org/2000/svg"
 width="256.000000pt" height="256.000000pt" viewBox="0 0 256.000000 256.000000"
 preserveAspectRatio="xMidYMid meet">
<metadata>
Created by potrace 1.16, written by Peter Selinger 2001-2019
</metadata>
<g transform="translate(0.000000,256.000000) scale(0.100000,-0.100000)"
fill="#000000" stroke="none">
<path d="M1030 2018 c0 -32 4 -58 10 -58 9 0 15 28 11 58 -1 6 3 20 8 30 6 9
11 12 11 7 0 -7 41 -11 111 -10 l111 0 4 -111 c3 -91 1 -113 -10 -117 -8 -3
-53 -7 -100 -8 -111 -2 -112 -19 -2 -19 46 0 91 -3 99 -6 15 -5 15 -39 1 -183
l-6 -54 -104 5 c-71 3 -104 1 -105 -6 0 -6 -5 -1 -11 12 -6 12 -14 22 -18 22
-4 0 -12 -10 -18 -22 -6 -13 -11 -18 -11 -12 -1 7 -34 9 -106 6 -98 -4 -105
-3 -105 14 -1 18 -1 18 -11 1 -6 -10 -8 -24 -5 -32 3 -9 0 -12 -10 -8 -8 3
-13 11 -11 17 3 7 -6 11 -22 10 -33 -1 -35 -29 -2 -29 14 0 26 -6 29 -13 3
-10 8 -9 22 3 15 13 35 16 104 13 60 -2 86 0 86 9 0 8 6 8 24 0 17 -8 23 -19
22 -42 0 -20 4 -30 14 -30 10 0 14 10 14 30 -1 23 5 34 22 42 18 8 24 8 24 0
0 -19 198 -16 205 2 3 8 0 18 -7 22 -10 7 -10 11 0 21 9 9 12 73 12 245 0 128
-1 233 -2 234 -2 1 -49 4 -105 8 -86 5 -103 4 -107 -9 -3 -12 -4 -12 -5 1 -1
11 -10 16 -31 15 -30 -1 -30 -2 -30 -58z"/>
<path d="M1033 1920 c3 -11 1 -23 -5 -26 -5 -3 -7 -12 -4 -20 9 -24 -4 -42
-30 -39 -30 3 -32 -12 -1 -18 19 -4 18 -4 -5 -6 -16 0 -28 3 -28 9 0 5 -39 8
-95 7 -66 -1 -95 -6 -95 -14 0 -18 62 -26 156 -20 56 3 87 1 93 -7 5 -6 9 -52
8 -101 -2 -75 1 -91 13 -91 12 0 15 16 13 91 -2 74 1 92 15 103 15 11 15 14 2
22 -17 10 -17 11 -19 80 0 29 -6 50 -12 50 -6 0 -9 -9 -6 -20z"/>
<path d="M1986 1796 c-9 -14 -16 -29 -16 -34 0 -5 -6 -15 -14 -21 -8 -7 -12
-21 -8 -33 3 -13 1 -19 -5 -15 -6 4 -11 -3 -12 -16 0 -12 -4 -46 -7 -74 -4
-40 -2 -56 9 -68 10 -9 18 -11 22 -5 23 37 26 -27 4 -71 -9 -17 16 -63 30 -55
10 7 7 -32 -4 -41 -4 -5 -5 -2 -1 5 13 22 -13 13 -48 -18 -22 -20 -40 -28 -52
-24 -16 5 -17 4 -4 -6 12 -9 9 -10 -15 -6 -22 5 -26 4 -15 -4 8 -5 11 -10 5
-10 -5 0 -4 -4 4 -9 9 -6 5 -8 -14 -8 -16 0 -22 3 -15 7 8 5 8 9 -3 13 -9 3
-21 -1 -27 -9 -14 -16 -35 -19 -25 -4 3 6 -1 10 -9 10 -9 0 -16 -4 -16 -10 0
-15 -153 -13 -169 3 -11 10 -13 10 -7 0 4 -7 2 -13 -3 -13 -12 0 -15 13 -5 23
3 3 7 64 7 136 1 72 0 125 -2 119 -2 -7 -8 -16 -14 -19 -5 -4 -9 -35 -7 -70 1
-35 2 -73 1 -84 -1 -11 -2 -39 -3 -62 -1 -25 -6 -39 -12 -36 -14 9 -185 10
-180 1 3 -4 -9 -2 -26 3 -20 8 -28 15 -22 23 10 14 3 196 -8 196 -5 0 -7 -36
-6 -80 1 -49 -2 -81 -8 -84 -6 -2 -3 -5 7 -5 18 -1 25 -21 7 -21 -5 0 -10 -7
-10 -15 0 -8 5 -15 12 -15 6 0 8 -3 5 -6 -4 -4 -13 -2 -20 4 -8 7 -16 9 -20 6
-10 -11 -215 -10 -214 1 1 6 -5 10 -13 10 -8 0 -14 -4 -13 -10 1 -11 -204 -12
-214 -1 -4 3 -12 1 -20 -6 -7 -6 -16 -8 -20 -4 -3 3 -1 6 5 6 7 0 12 7 12 15
0 8 -4 15 -10 15 -18 0 -11 20 8 21 9 0 12 3 6 5 -7 3 -10 26 -8 62 3 31 1 63
-3 72 -4 8 -10 -23 -13 -70 -4 -47 -3 -90 2 -96 6 -8 -1 -15 -22 -23 -17 -5
-29 -7 -26 -3 5 8 -98 7 -121 -2 -8 -4 -21 -2 -28 4 -9 8 -15 8 -20 0 -3 -5
-11 -10 -18 -10 -8 0 -8 3 1 12 17 17 15 28 -5 28 -14 0 -15 -2 -5 -9 10 -6 6
-11 -17 -19 -18 -6 -30 -8 -27 -4 2 4 -40 5 -94 2 -86 -4 -98 -3 -95 11 2 9
-1 22 -6 30 -8 12 -10 12 -18 0 -5 -8 -8 -22 -6 -31 3 -17 -29 -22 -52 -7 -7
4 -20 4 -28 -1 -9 -4 -39 -5 -68 -1 -56 7 -71 3 -73 -21 -1 -8 -4 -25 -8 -37
-6 -17 -3 -23 8 -23 9 0 16 -4 16 -10 0 -5 -7 -10 -15 -10 -19 0 -19 -2 0 -47
18 -43 19 -67 3 -57 -13 8 -3 -11 21 -40 10 -13 11 -17 3 -12 -12 7 -12 4 -2
-14 6 -12 9 -24 6 -27 -3 -4 4 -21 15 -39 13 -22 18 -42 14 -56 -6 -22 -6 -23
10 -3 15 18 15 18 9 -10 -4 -24 1 -38 26 -70 42 -54 56 -60 72 -35 14 22 40
28 33 8 -3 -8 4 -14 20 -14 19 -2 23 1 16 10 -7 8 -4 12 9 12 10 0 18 -5 17
-11 -3 -15 47 -18 104 -6 35 8 56 8 69 1 22 -12 73 -3 64 11 -3 5 0 9 5 9 6 0
11 -5 11 -11 0 -8 4 -8 13 -1 17 14 92 23 79 10 -13 -13 -4 -40 11 -31 6 4 8
0 4 -11 -5 -11 -3 -15 5 -10 8 5 9 2 5 -9 -5 -12 13 -36 62 -84 76 -74 97 -93
106 -93 3 0 3 5 0 10 -3 6 -2 10 2 10 5 0 14 -9 21 -20 7 -11 32 -29 57 -41
25 -12 45 -25 45 -30 0 -15 32 -10 52 8 16 14 23 15 38 5 23 -14 47 -7 47 14
0 8 -6 13 -13 10 -8 -3 -16 -1 -19 4 -4 6 1 10 9 10 23 0 66 -22 61 -31 -3 -4
4 -5 15 -2 11 3 17 9 14 14 -3 5 -1 9 5 9 6 0 8 8 5 18 -5 13 -4 14 4 3 6 -8
8 -20 5 -28 -3 -7 -1 -13 5 -13 15 0 22 26 9 39 -16 16 5 13 27 -4 13 -10 15
-15 6 -15 -7 0 -11 -3 -7 -6 3 -4 21 3 40 15 19 11 46 21 61 21 14 0 26 3 26
8 0 4 12 8 27 9 15 0 29 6 31 11 1 5 13 8 25 5 16 -3 18 -2 9 5 -11 7 -10 10
3 16 23 8 27 8 20 -4 -4 -6 4 -6 19 1 16 8 22 17 18 28 -5 14 -4 14 11 2 15
-12 17 -12 11 3 -3 9 -1 16 5 16 6 0 11 -5 11 -11 0 -5 4 -8 10 -4 5 3 7 12 3
20 -3 11 2 15 18 15 19 0 21 -2 9 -10 -25 -16 0 -11 28 6 34 19 89 94 70 94
-10 0 -10 2 1 9 11 7 11 9 0 14 -8 3 2 4 21 2 19 -2 38 2 42 9 6 8 8 7 8 -2 0
-7 -7 -15 -15 -18 -8 -4 -12 -10 -9 -15 2 -5 34 19 70 54 48 46 63 67 59 80
-4 9 -12 14 -19 10 -6 -3 -7 -2 -3 2 14 16 37 14 37 -3 1 -12 10 -7 30 17 27
31 28 37 15 51 -8 9 -15 21 -15 26 0 5 5 1 11 -8 12 -21 34 -24 26 -5 -6 16 8
41 23 43 5 1 15 2 21 3 6 0 9 8 5 16 -3 9 11 33 34 60 22 26 41 50 41 56 1 5
3 14 4 19 1 6 3 17 4 26 0 8 5 13 10 10 15 -10 22 25 9 42 -8 10 -9 13 -1 9 6
-4 13 -3 15 3 3 10 19 15 78 27 20 4 22 2 10 -6 -12 -9 -10 -11 10 -11 30 0
57 16 47 27 -5 4 -12 1 -17 -7 -6 -9 -10 -10 -10 -3 0 15 18 26 47 29 13 2 32
5 42 9 11 3 22 1 26 -4 4 -7 -1 -8 -12 -4 -14 4 -15 3 -7 -6 9 -10 18 -10 40
2 34 18 103 87 87 87 -7 0 -14 -4 -18 -10 -8 -13 -32 -2 -40 18 -3 9 -3 13 1
9 4 -4 15 0 25 9 10 9 19 11 23 5 4 -5 -3 -12 -14 -16 -11 -4 -18 -11 -15 -16
3 -5 17 -2 31 7 13 9 24 12 24 8 0 -14 20 19 20 34 0 6 -7 12 -15 12 -8 0 -15
5 -15 11 0 6 9 8 21 4 30 -10 16 10 -21 28 -19 10 -30 11 -33 4 -2 -6 -8 -5
-17 4 -14 16 -66 14 -86 -2 -8 -6 -13 -3 -17 11 -3 12 -13 20 -27 20 -12 0
-18 -4 -15 -10 4 -6 -7 -9 -27 -8 -25 2 -32 -1 -30 -12 2 -11 -1 -11 -11 3
-15 18 -33 24 -22 7 3 -5 -1 -10 -9 -10 -21 0 -20 16 1 24 15 6 15 8 3 16 -9
6 -10 10 -3 10 6 0 9 9 6 20 -6 23 -14 25 -31 8 -8 -8 -12 -8 -12 -1 0 6 8 14
18 18 15 7 14 9 -7 14 -14 4 -27 13 -29 21 -4 12 -2 13 9 3 22 -22 28 -14 13
17 -9 16 -26 38 -40 49 -14 11 -24 23 -23 28 1 4 -8 13 -20 19 -11 6 -29 18
-40 28 -17 16 -19 15 -35 -8z m-1150 -854 c1 -7 0 -8 -3 -2 -11 22 -22 8 -11
-15 6 -13 14 -22 18 -20 9 6 20 -19 20 -45 0 -10 -9 -28 -21 -41 -17 -20 -19
-21 -10 -3 6 12 6 26 1 34 -8 12 -13 11 -30 -8 -12 -12 -26 -19 -32 -16 -7 5
-8 2 -3 -6 6 -10 4 -12 -8 -7 -11 4 -14 2 -10 -9 3 -7 0 -14 -7 -14 -6 0 -9 4
-6 8 3 5 -6 25 -20 46 -14 21 -27 52 -30 69 -2 20 0 27 5 19 7 -11 9 -11 14 2
3 8 1 17 -6 19 -7 2 21 4 62 3 52 -1 75 -5 77 -14z"/>
</g>
</svg>
