<?xml version="1.0" standalone="no"?>
<!DOCTYPE svg PUBLIC "-//W3C//DTD SVG 20010904//EN"
 "http://www.w3.org/TR/2001/REC-SVG-20010904/DTD/svg10.dtd">
<svg version="1.0" xmlns="http://www.w3.org/2000/svg"
 width="474.000000pt" height="474.000000pt" viewBox="0 0 474.000000 474.000000"
 preserveAspectRatio="xMidYMid meet">
<metadata>
Created by potrace 1.16, written by Peter Selinger 2001-2019
</metadata>
<g transform="translate(0.000000,474.000000) scale(0.100000,-0.100000)"
fill="#000000" stroke="none">
<path d="M2260 4588 c-48 -18 -83 -48 -277 -242 l-223 -221 256 -256 257 -257
36 10 c97 27 249 -20 322 -99 76 -83 114 -211 91 -309 l-9 -42 246 -246 246
-245 58 8 c153 21 300 -57 367 -194 36 -72 40 -199 10 -274 -32 -82 -90 -145
-168 -183 -61 -30 -74 -33 -162 -33 -85 0 -101 3 -149 28 -66 35 -134 104
-162 165 -26 56 -36 180 -20 237 l11 40 -225 225 -225 225 0 -602 0 -603 38
-24 c51 -32 89 -79 121 -146 21 -45 26 -70 26 -140 0 -73 -4 -93 -28 -143 -97
-197 -331 -263 -508 -144 -59 39 -124 122 -141 180 -22 73 -16 184 14 248 31
67 86 131 139 161 22 12 39 26 39 32 0 6 0 281 0 611 l1 600 -51 35 c-108 75
-154 162 -154 290 0 51 5 94 13 108 12 22 2 34 -236 273 -136 137 -253 249
-258 249 -6 0 -319 -309 -697 -687 -657 -659 -686 -690 -708 -748 -29 -79 -24
-162 14 -232 20 -36 311 -333 1039 -1060 978 -977 1014 -1011 1072 -1033 45
-17 74 -21 116 -17 121 11 71 -35 1165 1060 978 978 1012 1014 1034 1072 27
74 24 159 -10 225 -16 32 -307 330 -1038 1061 -973 972 -1020 1018 -1075 1038
-72 26 -136 26 -207 -1z"/>
</g>
</svg>
