<?xml version="1.0" standalone="no"?>
<!DOCTYPE svg PUBLIC "-//W3C//DTD SVG 20010904//EN"
 "http://www.w3.org/TR/2001/REC-SVG-20010904/DTD/svg10.dtd">
<svg version="1.0" xmlns="http://www.w3.org/2000/svg"
 width="474.000000pt" height="516.000000pt" viewBox="0 0 474.000000 516.000000"
 preserveAspectRatio="xMidYMid meet">
<metadata>
Created by potrace 1.16, written by Peter Selinger 2001-2019
</metadata>
<g transform="translate(0.000000,516.000000) scale(0.100000,-0.100000)"
fill="#000000" stroke="none">
<path d="M1132 5154 c4 -3 -9 -20 -27 -37 -49 -48 -618 -683 -894 -997 -84
-96 -166 -190 -182 -207 l-29 -32 0 -1906 c0 -1048 3 -1905 8 -1905 4 0 12
-10 17 -22 6 -14 21 -24 38 -26 15 -2 27 -8 27 -13 0 -5 713 -9 1856 -9 l1855
0 32 30 32 30 3 290 c2 159 6 290 10 291 4 1 147 4 317 8 303 6 311 7 358 31
75 38 167 151 167 205 0 8 5 15 10 15 7 0 10 245 10 715 0 412 -4 715 -9 715
-5 0 -12 12 -16 27 -18 73 -102 163 -190 203 -22 10 -109 14 -342 18 l-312 4
-3 1263 c-3 1344 -1 1295 -49 1295 -11 0 -19 5 -19 10 0 7 -452 10 -1337 10
-735 0 -1334 -3 -1331 -6z m2528 -1389 l0 -1185 -1347 -1 c-742 0 -1367 -2
-1390 -4 -84 -6 -192 -88 -245 -187 l-23 -43 0 -735 0 -735 26 -45 c36 -61
104 -127 161 -156 l47 -24 1383 -2 1383 -3 3 -217 2 -218 -1720 0 -1720 0 0
1725 0 1725 507 0 507 0 28 27 28 27 0 551 c0 304 3 580 6 613 l7 61 101 4
c56 1 586 4 1179 5 l1077 2 0 -1185z m-2584 553 l-1 -443 -385 -3 c-212 -1
-391 0 -398 3 -7 3 143 178 380 444 216 242 396 440 399 440 4 1 6 -198 5
-441z m3386 -1967 c53 -27 53 -33 53 -731 0 -355 -4 -662 -8 -683 -5 -24 -18
-43 -35 -55 -25 -16 -129 -17 -1782 -17 -1407 0 -1759 3 -1777 13 -13 7 -26
25 -30 40 -5 15 -8 334 -8 709 l0 682 23 23 c22 23 27 23 325 29 166 3 957 5
1757 4 1211 0 1460 -3 1482 -14z"/>
<path d="M1287 2013 c-4 -3 -7 -186 -7 -405 l0 -398 55 0 55 0 0 180 0 180
220 0 220 0 0 -180 0 -180 55 0 55 0 -2 403 -3 402 -52 3 -53 3 -2 -183 -3
-183 -210 3 c-115 2 -211 5 -212 6 -1 1 -5 82 -9 179 l-7 177 -47 0 c-26 0
-50 -3 -53 -7z"/>
<path d="M2060 1975 l0 -44 128 -3 127 -3 3 -357 2 -358 55 0 55 0 2 358 3
357 128 0 127 0 0 48 0 47 -315 0 -315 0 0 -45z"/>
<path d="M2807 2013 c-4 -3 -7 -186 -7 -405 l0 -398 44 0 43 0 6 83 c4 45 7
188 7 317 l0 235 29 -50 c15 -27 74 -132 131 -232 56 -99 114 -196 129 -214
24 -28 30 -30 49 -20 23 12 104 144 223 363 41 76 76 138 79 138 3 0 5 -15 5
-32 1 -18 2 -158 3 -310 l2 -278 45 0 45 0 0 405 0 405 -41 0 c-32 0 -47 -6
-68 -28 -14 -16 -86 -139 -160 -273 -73 -134 -137 -248 -141 -252 -4 -4 -67
99 -140 230 -73 131 -144 257 -158 281 -23 40 -26 42 -71 42 -26 0 -51 -3 -54
-7z"/>
<path d="M3847 2013 c-4 -3 -7 -186 -7 -405 l0 -398 231 0 230 0 -3 43 -3 42
-172 3 -173 2 0 360 0 360 -48 0 c-27 0 -52 -3 -55 -7z"/>
</g>
</svg>
