<?xml version="1.0" standalone="no"?>
<!DOCTYPE svg PUBLIC "-//W3C//DTD SVG 20010904//EN"
 "http://www.w3.org/TR/2001/REC-SVG-20010904/DTD/svg10.dtd">
<svg version="1.0" xmlns="http://www.w3.org/2000/svg"
 width="474.000000pt" height="474.000000pt" viewBox="0 0 474.000000 474.000000"
 preserveAspectRatio="xMidYMid meet">
<metadata>
Created by potrace 1.16, written by Peter Selinger 2001-2019
</metadata>
<g transform="translate(0.000000,474.000000) scale(0.100000,-0.100000)"
fill="#000000" stroke="none">
<path d="M2281 4325 c-241 -37 -489 -126 -651 -234 -30 -21 -84 -52 -120 -71
-100 -51 -159 -91 -229 -156 -74 -68 -152 -181 -170 -247 -10 -35 -23 -52 -52
-73 -127 -88 -187 -288 -159 -529 6 -55 15 -116 21 -136 8 -33 6 -41 -35 -102
-68 -102 -91 -180 -90 -312 0 -190 57 -339 167 -441 77 -71 127 -102 206 -129
l65 -22 26 -94 c15 -52 47 -143 70 -203 28 -71 39 -111 32 -114 -6 -2 -100
-60 -209 -128 -325 -206 -515 -350 -549 -417 -11 -20 -14 -43 -10 -69 11 -66
156 -417 179 -433 19 -13 223 -15 1597 -15 l1577 0 21 23 c35 38 150 434 172
596 12 91 7 123 -28 169 -29 38 -164 148 -308 250 l-102 72 45 68 c59 89 144
265 183 381 78 235 112 456 114 746 2 375 -51 648 -176 903 -180 369 -498 608
-935 703 -130 28 -507 36 -652 14z m696 -229 c195 -56 349 -139 476 -256 79
-74 157 -163 157 -181 0 -5 -20 -9 -45 -9 -52 0 -109 -21 -144 -53 -26 -24
-60 -92 -61 -119 0 -16 3 -16 41 -3 23 8 72 15 109 15 54 0 78 -6 126 -30 109
-54 140 -108 178 -310 18 -101 39 -310 31 -318 -12 -12 -112 109 -155 186 -78
143 -80 146 -92 134 -11 -11 -3 -114 19 -269 l6 -42 -34 9 c-64 19 -97 13
-114 -20 -25 -48 -19 -97 14 -131 28 -27 34 -29 113 -29 93 0 203 23 230 47
17 15 18 12 18 -59 0 -276 -76 -610 -195 -853 -89 -182 -165 -273 -315 -375
-145 -99 -279 -135 -500 -134 -126 0 -173 4 -250 23 -279 67 -501 226 -624
444 -26 48 -52 87 -57 87 -17 0 -8 -115 14 -181 35 -102 84 -174 184 -268 l92
-87 -43 -23 c-38 -21 -52 -23 -112 -18 -158 15 -322 84 -409 171 -63 63 -122
182 -164 328 -37 125 -39 154 -11 163 29 9 60 54 60 87 0 34 -55 92 -96 102
-28 7 -77 -15 -110 -51 -21 -22 -26 -23 -62 -13 -94 25 -182 111 -222 217 -28
72 -38 210 -20 281 14 61 57 128 101 161 115 85 264 6 284 -151 5 -37 4 -40
-7 -24 -35 52 -77 91 -116 108 -49 22 -74 17 -115 -20 -24 -23 -27 -33 -27
-86 0 -77 40 -166 102 -228 l43 -43 3 85 c1 47 4 90 7 97 3 8 22 5 67 -13 35
-14 70 -26 78 -27 8 -1 20 -6 27 -10 16 -10 239 71 272 98 23 20 26 30 25 82
-1 32 -16 112 -34 178 -41 152 -38 211 21 420 46 165 52 239 25 314 l-16 43
48 72 c58 87 194 231 282 297 126 95 338 183 505 209 107 16 289 5 392 -24z
m-1169 -2972 c40 -14 109 -30 152 -36 l78 -12 7 -64 c4 -35 5 -66 2 -68 -3 -3
-40 9 -83 26 -99 39 -191 101 -249 170 l-20 23 20 -7 c11 -4 53 -19 93 -32z"/>
<path d="M2248 3636 c-108 -39 -162 -93 -227 -226 -28 -59 -36 -90 -39 -145
-6 -125 41 -141 99 -32 43 81 139 182 193 202 22 8 91 19 153 23 131 10 148
19 138 71 -16 86 -73 121 -197 121 -46 -1 -99 -7 -120 -14z"/>
<path d="M2696 3161 c-16 -26 -17 -108 -1 -205 9 -59 14 -110 11 -113 -3 -3
-56 0 -118 6 -163 16 -163 16 -189 -20 -51 -72 -16 -131 91 -150 241 -43 448
69 370 201 -11 19 -36 69 -56 110 -80 168 -95 193 -108 171z"/>
<path d="M3180 3123 c-18 -63 -24 -232 -11 -308 20 -118 67 -198 187 -325 68
-72 103 -117 100 -127 -3 -8 -6 -16 -6 -19 0 -10 -64 -34 -132 -48 -87 -18
-212 -20 -277 -5 -25 5 -66 26 -93 45 -65 48 -83 41 -75 -30 8 -83 61 -172
120 -203 51 -26 113 -32 244 -22 267 19 413 120 413 285 0 90 -33 146 -164
281 -128 131 -180 216 -241 394 -20 60 -41 112 -46 114 -4 3 -13 -11 -19 -32z"/>
<path d="M3590 1989 c-36 -11 -111 -22 -167 -26 l-103 -6 0 -90 0 -90 41 7
c147 23 276 110 304 204 7 26 10 26 -75 1z"/>
<path d="M2672 1943 c40 -42 129 -93 221 -126 67 -24 103 -30 200 -34 l118 -6
-3 84 -3 84 -165 6 c-91 3 -217 9 -280 14 l-115 7 27 -29z"/>
<path d="M2474 1815 c-14 -36 56 -182 116 -242 66 -66 127 -84 300 -91 118 -4
157 -1 203 12 70 20 123 65 153 131 l24 50 -268 6 c-230 5 -275 9 -329 26 -74
24 -118 54 -138 94 -17 31 -52 40 -61 14z"/>
</g>
</svg>
