<?xml version="1.0" standalone="no"?>
<!DOCTYPE svg PUBLIC "-//W3C//DTD SVG 20010904//EN"
 "http://www.w3.org/TR/2001/REC-SVG-20010904/DTD/svg10.dtd">
<svg version="1.0" xmlns="http://www.w3.org/2000/svg"
 width="474.000000pt" height="474.000000pt" viewBox="0 0 474.000000 474.000000"
 preserveAspectRatio="xMidYMid meet">
<metadata>
Created by potrace 1.16, written by Peter Selinger 2001-2019
</metadata>
<g transform="translate(0.000000,474.000000) scale(0.100000,-0.100000)"
fill="#000000" stroke="none">
<path d="M2260 4541 c-30 -10 -194 -87 -365 -171 -170 -84 -350 -171 -400
-195 -74 -35 -346 -168 -760 -371 -79 -39 -156 -116 -183 -185 -12 -30 -67
-256 -122 -504 -55 -247 -120 -535 -145 -640 -38 -167 -112 -501 -130 -592 -9
-44 10 -138 40 -198 13 -27 142 -198 286 -380 143 -181 342 -433 442 -560 407
-516 385 -492 483 -537 l49 -23 915 0 915 0 67 33 c62 30 98 62 159 143 15 19
73 92 130 164 57 71 113 142 124 156 17 23 536 679 712 902 62 78 89 133 104
212 12 65 13 60 -76 450 -63 280 -101 445 -239 1056 -35 157 -74 307 -87 333
-12 27 -43 69 -68 94 -45 45 -158 103 -781 405 -223 107 -691 336 -753 367
-122 62 -216 74 -317 41z m154 -565 c54 -22 59 -50 47 -233 -6 -87 -14 -168
-17 -181 -5 -16 -3 -22 6 -20 7 2 16 -8 19 -21 6 -22 16 -26 111 -42 222 -37
435 -143 607 -303 47 -44 62 -52 76 -44 10 5 23 8 30 5 7 -2 66 46 132 108
129 120 149 135 190 135 59 0 102 -55 90 -116 -7 -38 -32 -59 -212 -178 -70
-47 -100 -73 -96 -83 3 -7 -2 -19 -11 -26 -15 -11 -12 -21 33 -107 27 -52 59
-120 70 -150 57 -157 86 -354 75 -516 -6 -87 -6 -91 15 -97 11 -3 21 -12 21
-21 0 -11 9 -16 28 -16 15 0 94 -11 176 -24 158 -26 187 -40 201 -93 16 -65
-44 -131 -108 -119 -18 3 -99 28 -182 55 -105 35 -152 46 -157 38 -4 -6 -17
-12 -29 -12 -18 0 -28 -14 -54 -80 -87 -214 -250 -417 -435 -540 -65 -43 -69
-48 -63 -76 4 -20 2 -29 -7 -29 -10 0 -9 -4 2 -17 18 -21 93 -154 137 -240 47
-94 40 -142 -26 -169 -50 -21 -98 -4 -122 44 -15 31 -103 264 -117 311 -3 8
-7 11 -11 7 -4 -3 -16 3 -29 15 l-22 20 -68 -21 c-219 -67 -473 -65 -701 6
-73 22 -79 23 -91 6 -7 -9 -20 -17 -30 -17 -9 0 -18 -9 -20 -20 -2 -11 -31
-84 -64 -162 -63 -152 -88 -183 -140 -183 -40 0 -65 15 -84 51 -23 45 -12 74
86 238 48 80 83 149 78 152 -5 3 -6 17 -3 30 5 22 -1 29 -47 59 -75 49 -211
181 -278 271 -62 83 -147 243 -175 326 -15 48 -19 52 -41 47 -17 -4 -26 -1
-30 10 -4 11 -11 13 -23 7 -29 -16 -299 -91 -326 -91 -37 0 -62 16 -80 50 -21
40 -19 72 5 103 26 33 54 41 238 63 127 16 152 21 155 36 3 10 14 18 25 18 18
0 19 6 14 99 -11 225 46 458 158 655 47 81 50 90 35 106 -8 9 -13 24 -10 32 4
10 -10 24 -42 44 -96 60 -244 175 -255 199 -27 59 22 135 87 135 42 0 87 -34
208 -158 58 -60 104 -99 112 -96 7 3 22 1 33 -5 16 -8 23 -6 38 11 28 31 141
120 207 161 119 76 317 147 455 163 56 6 60 8 66 36 4 19 10 27 17 22 9 -5 10
9 6 57 -13 130 -20 297 -13 323 6 26 58 66 84 66 7 0 27 -6 46 -14z"/>
<path d="M2184 3250 c-64 -13 -212 -72 -284 -112 -75 -42 -185 -128 -182 -143
0 -5 41 -37 89 -70 297 -204 359 -245 375 -245 10 0 22 10 27 23 4 12 18 135
30 272 13 138 23 257 24 265 2 18 -23 21 -79 10z"/>
<path d="M2504 3182 c4 -42 13 -165 21 -272 9 -107 18 -203 21 -212 12 -38 56
-17 281 134 l227 151 -44 39 c-135 118 -298 197 -479 232 l-33 6 6 -78z"/>
<path d="M1545 2787 c-34 -53 -77 -161 -100 -253 -32 -123 -45 -311 -24 -319
8 -3 102 22 209 56 320 100 325 102 328 125 2 15 -38 60 -155 175 -270 265
-242 241 -258 216z"/>
<path d="M3034 2643 c-87 -81 -178 -165 -202 -187 -32 -30 -42 -46 -40 -66 3
-23 19 -30 266 -114 145 -48 266 -85 269 -82 4 4 6 57 5 119 -1 82 -8 138 -26
208 -26 103 -80 241 -100 258 -9 8 -52 -26 -172 -136z"/>
<path d="M2328 2470 c-148 -44 -187 -230 -66 -319 80 -59 168 -51 236 23 46
50 59 102 42 164 -25 94 -127 158 -212 132z"/>
<path d="M1713 2006 c-127 -17 -235 -35 -239 -39 -12 -12 91 -207 147 -277 47
-59 150 -156 206 -195 20 -14 22 -13 36 28 8 23 54 140 101 261 97 246 98 257
23 255 -23 -1 -146 -15 -274 -33z"/>
<path d="M2706 2019 c-13 -20 -12 -30 21 -118 60 -164 153 -424 153 -428 0 -2
21 11 48 28 71 48 196 179 247 259 46 71 95 166 95 186 0 6 -35 16 -77 22 -43
6 -165 25 -271 42 -106 16 -194 30 -197 30 -2 0 -11 -10 -19 -21z"/>
<path d="M2348 1858 c-23 -19 -294 -475 -287 -482 2 -2 45 -14 94 -27 114 -29
299 -31 420 -5 44 10 83 20 88 23 9 5 -6 32 -153 288 -129 225 -131 227 -162
203z"/>
</g>
</svg>
